<?xml version="1.0" encoding="UTF-8"?>
<svg id="Layer_1" xmlns="http://www.w3.org/2000/svg" version="1.1" viewBox="0 0 283.46 79.37">
  <!-- Generator: Adobe Illustrator 30.3.0, SVG Export Plug-In . SVG Version: 2.1.3 Build 182)  -->
  <g isolation="isolate">
    <g id="Ebene_2">
      <g id="Kreis">
        <circle cx="39.69" cy="39.69" r="39.69" fill="#e01c15"/>
      </g>
      <g id="Flügel_hell">
        <path d="M55.73,30.45c2.94-6.52-7.7-15.58-23.77-20.25-1.22-.35-2.43-.67-3.64-.95-.19,1.42-.27,2.88-.25,4.36.16,9.36,4.68,17.62,11.58,22.9,8.12-.07,14.32-2.18,16.07-6.06h.01Z" fill="#fce0d1"/>
        <path d="M56.04,48.39c-1.89-3.82-8.15-5.71-16.28-5.5-6.71,5.52-10.94,13.93-10.77,23.29.03,1.48.16,2.93.4,4.35,1.19-.33,2.4-.68,3.6-1.08,15.9-5.22,26.22-14.66,23.05-21.07v.01Z" fill="#fce0d1"/>
      </g>
      <g id="Schwanz">
        <path d="M52.43,39.48l-32.03-10.82c-1.18-.38-2.49-.04-3.33.88-2.31,2.53-3.75,6.36-3.68,10.63s1.65,8.05,4.04,10.49c.87.89,2.18,1.18,3.35.76l31.63-11.94h.02Z" fill="#fce0d1"/>
      </g>
      <g id="Schatten">
        <path d="M19.12,40.36l17.65,5.38h0c6.29,2.59,10.31,6.51,10.39,10.96.07,4.16-3.31,7.97-8.79,10.74,0,0,15.89-16.42-19.24-27.08h-.01Z" fill="#f39575" isolation="isolate" mix-blend-mode="multiply"/>
      </g>
      <g id="Kopf">
        <path d="M67.87,39.06l-4.55-1.31c-.1-.03-.18-.1-.21-.2-.2-.56-1.11-2.48-4.09-3.14-3.51-.79-5.88,0-5.88,0,0,0-.72.28-.94-.02-.22-.3.28-.58.28-.58h-.01c1.53-.91,2.66-2.02,3.26-3.34,2.6-5.75-5.38-13.48-18.33-18.43,5.58,2.58,9.09,6.27,9.16,10.43.08,4.45-3.8,8.51-10,11.32l-17.45,5.99c-.29.1-.29.52.01.61l17.65,5.38h0c6.29,2.59,10.31,6.51,10.39,10.96.07,4.16-3.31,7.97-8.79,10.74,12.77-5.39,20.48-13.4,17.68-19.06-.47-.94-1.21-1.77-2.17-2.47-.17-.12-.19-.38-.02-.51,3.89-3.14,9.28-4.8,9.28-4.8l4.75-1.25c.15-.05.15-.26,0-.3l-.02-.02Z" fill="#fff"/>
      </g>
      <g id="Text">
        <path d="M102.03,47.86c-.15,0-.25-.1-.3-.24l-5.34-15.99c-.05-.15.05-.24.2-.24h2.41c.17,0,.27.07.32.24l3.77,11.68h.07l3.63-11.68c.05-.17.15-.24.32-.24h2.41c.15,0,.25.1.2.24l-5.36,15.99c-.05.15-.15.24-.3.24h-2.04.01Z" fill="#fff"/>
        <path d="M111.86,44.15c-.35-1.02-.45-1.94-.45-4.53s.1-3.51.45-4.53c.87-2.62,3.05-3.97,5.96-3.97s5.11,1.36,5.98,3.97c.35,1.02.45,1.94.45,4.53s-.1,3.51-.45,4.53c-.87,2.62-3.05,3.97-5.98,3.97s-5.09-1.36-5.96-3.97ZM120.97,43.4c.2-.61.3-1.45.3-3.78s-.1-3.17-.3-3.78c-.47-1.33-1.46-2.16-3.15-2.16s-2.66.82-3.13,2.16c-.2.61-.3,1.43-.3,3.78s.1,3.17.3,3.78c.47,1.33,1.46,2.16,3.13,2.16s2.68-.82,3.15-2.16Z" fill="#fff"/>
        <path d="M127.19,39.62c0-2.59.1-3.51.45-4.53.87-2.62,3.05-3.97,6.03-3.97,3.15,0,5.19,1.65,5.88,3.49.05.12.02.27-.1.34l-2.09.9c-.15.05-.27-.02-.32-.12-.74-1.31-1.76-2.04-3.4-2.04s-2.71.82-3.18,2.16c-.2.61-.3,1.43-.3,3.78s.1,3.17.3,3.78c.47,1.33,1.46,2.16,3.18,2.16,1.49,0,2.76-.73,3.2-2.06.17-.51.27-1.19.27-2.13,0-.1-.05-.15-.15-.15h-2.78c-.15,0-.25-.1-.25-.24v-1.94c0-.15.1-.24.25-.24h5.59c.15,0,.25.1.25.24v1.43c0,1.36-.12,2.79-.4,3.61-.82,2.57-3.05,4.05-5.96,4.05s-5.16-1.36-6.03-3.97c-.35-1.02-.45-1.94-.45-4.53l.01-.02Z" fill="#fff"/>
        <path d="M143.35,31.62c0-.15.1-.24.25-.24h10.58c.15,0,.25.1.25.24v2.08c0,.15-.1.24-.25.24h-7.75c-.1,0-.15.05-.15.15v4.02c0,.1.05.15.15.15h6.53c.15,0,.25.1.25.24v2.08c0,.15-.1.24-.25.24h-6.53c-.1,0-.15.05-.15.15v4.17c0,.1.05.15.15.15h7.75c.15,0,.25.1.25.24v2.08c0,.15-.1.24-.25.24h-10.58c-.15,0-.25-.1-.25-.24v-15.99h0Z" fill="#fff"/>
        <path d="M157.61,31.62c0-.15.1-.24.25-.24h2.43c.15,0,.25.1.25.24v13.52c0,.1.05.15.15.15h7.75c.15,0,.25.1.25.24v2.08c0,.15-.1.24-.25.24h-10.58c-.15,0-.25-.1-.25-.24v-15.99h0Z" fill="#fff"/>
        <path d="M182.39,47.86c-.15,0-.25-.1-.3-.24l-3.23-11.27h-.05l-3.25,11.27c-.05.15-.15.24-.3.24h-1.86c-.15,0-.25-.1-.3-.24l-4.15-15.99c-.02-.15.02-.24.2-.24h2.33c.17,0,.27.1.3.24l2.68,11.1h.05l3.15-11.1c.05-.15.15-.24.3-.24h1.74c.17,0,.25.1.3.24l3.23,11.1h.05l2.61-11.1c.02-.17.15-.24.3-.24h2.31c.17,0,.22.1.2.24l-4.12,15.99c-.02.15-.15.24-.3.24h-1.89Z" fill="#fff"/>
        <path d="M194.52,31.62c.05-.15.15-.24.32-.24h2.28c.17,0,.27.1.32.24l5.71,15.99c.05.15,0,.24-.17.24h-2.43c-.17,0-.27-.07-.32-.24l-1.12-3.2h-6.36l-1.12,3.2c-.05.17-.15.24-.32.24h-2.41c-.17,0-.22-.1-.17-.24l5.79-15.99h0ZM198.22,41.87l-2.23-6.4h-.07l-2.26,6.4h4.57-.01Z" fill="#fff"/>
        <path d="M215.5,47.86c-.2,0-.3-.07-.37-.24l-3.23-6.42h-2.9c-.1,0-.15.05-.15.15v6.27c0,.15-.1.24-.25.24h-2.43c-.15,0-.25-.1-.25-.24v-15.99c0-.15.1-.24.25-.24h6.53c3.1,0,5.39,2.01,5.39,4.92,0,2.16-1.27,3.83-3.2,4.53l3.55,6.71c.1.17,0,.31-.17.31h-2.77ZM215.18,36.3c0-1.43-1.04-2.35-2.58-2.35h-3.6c-.1,0-.15.05-.15.15v4.39c0,.1.05.15.15.15h3.6c1.54,0,2.58-.92,2.58-2.33v-.01Z" fill="#fff"/>
        <path d="M225.45,47.86c-.15,0-.25-.1-.25-.24v-13.52c0-.1-.05-.15-.15-.15h-4.42c-.15,0-.25-.1-.25-.24v-2.08c0-.15.1-.24.25-.24h12.07c.15,0,.25.1.25.24v2.08c0,.15-.1.24-.25.24h-4.42c-.1,0-.15.05-.15.15v13.52c0,.15-.1.24-.25.24h-2.43Z" fill="#fff"/>
        <path d="M235.72,31.62c0-.15.1-.24.25-.24h10.58c.15,0,.25.1.25.24v2.08c0,.15-.1.24-.25.24h-7.75c-.1,0-.15.05-.15.15v4.02c0,.1.05.15.15.15h6.53c.15,0,.25.1.25.24v2.08c0,.15-.1.24-.25.24h-6.53c-.1,0-.15.05-.15.15v4.17c0,.1.05.15.15.15h7.75c.15,0,.25.1.25.24v2.08c0,.15-.1.24-.25.24h-10.58c-.15,0-.25-.1-.25-.24v-15.99h0Z" fill="#fff"/>
        <path d="M250.24,45.14c0-.15.1-.24.25-.24h2.48c.15,0,.25.1.25.24v2.47c0,.15-.1.24-.25.24h-2.48c-.15,0-.25-.1-.25-.24v-2.47Z" fill="#fff"/>
        <path d="M255.9,39.62c0-2.62.1-3.44.45-4.46.87-2.69,3-4.05,5.86-4.05,2.71,0,4.74,1.36,5.71,3.54.05.12,0,.24-.12.29l-2.11.99c-.15.07-.27,0-.32-.12-.55-1.16-1.49-2.13-3.15-2.13s-2.56.85-3.03,2.18c-.22.68-.3,1.33-.3,3.76s.07,3.08.3,3.76c.47,1.33,1.41,2.18,3.03,2.18s2.61-.97,3.15-2.13c.05-.12.17-.19.32-.12l2.11.99c.12.05.17.17.12.29-.97,2.18-3,3.54-5.71,3.54-2.86,0-4.99-1.36-5.86-4.05-.35-1.02-.45-1.84-.45-4.46h0Z" fill="#fff"/>
        <path d="M270.88,31.62c0-.15.1-.24.25-.24h2.43c.15,0,.25.1.25.24v6.49c0,.1.05.15.15.15h6.43c.1,0,.15-.05.15-.15v-6.49c0-.15.1-.24.25-.24h2.43c.15,0,.25.1.25.24v15.99c0,.15-.1.24-.25.24h-2.43c-.15,0-.25-.1-.25-.24v-6.64c0-.1-.05-.15-.15-.15h-6.43c-.1,0-.15.05-.15.15v6.64c0,.15-.1.24-.25.24h-2.43c-.15,0-.25-.1-.25-.24v-15.99Z" fill="#fff"/>
      </g>
    </g>
  </g>
</svg>