<?xml version="1.0" encoding="utf-8"?>
<!-- Generator: Adobe Illustrator 30.3.0, SVG Export Plug-In . SVG Version: 9.03 Build 0)  -->
<svg version="1.0" id="svg2" xmlns:svg="http://www.w3.org/2000/svg"
	 xmlns="http://www.w3.org/2000/svg" xmlns:xlink="http://www.w3.org/1999/xlink" x="0px" y="0px" viewBox="0 0 240 90"
	 enable-background="new 0 0 240 90" xml:space="preserve">
<g id="g2490" transform="matrix(0.9749851,0,0,0.9749851,2.7030081,0.3289637)">
	<g id="g4" transform="translate(10.3828,0.436523)">
		<path id="path6" fill-rule="evenodd" clip-rule="evenodd" fill="#008AC8" d="M184.162,48.328
			c-1.086-0.184-9.873-1.049-15.501-0.75c-3.133,0.167-16.414,1.65-22.158,2.784c-5.035,0.996-12.078,2.56-19.775,2.669
			c-9.527,0.132-14.023-1.922-16.535-2.955c-2.509-1.037-4.54-2.904-5.369-3.854c-0.749-0.855-0.795-2.283-0.795-2.283
			s8.261-8.825,12.226-16.558c3.393-6.608,4.397-11.457,4.695-13.775c0.3-2.317-0.29-4.229-1.492-5.145
			c-1.207-0.914-3.071-1.151-4.814-0.184c-2.409,1.331-4.61,3.999-6.371,6.482c-1.756,2.486-4.198,6.083-5.975,12.177
			c-1.94,6.66-2.253,9.493-2.307,11.021c-0.052,1.528,0.132,4.185,0.132,4.185s-1.963,2.652-4.146,4.759
			c-2.186,2.104-4.625,4.01-7.601,3.513c-2.291-0.387-2.508-3.034-2.537-4.421c-0.021-1.383,0.622-3.178,0.818-4.699
			c0.205-1.519,0.331-1.081-0.303-1.682c-0.634-0.606-1.512-0.346-2.755-0.316c-1.235,0.029-0.969,0.765-1.665,1.979
			c-0.699,1.212-2.377,4.734-4.405,6.556c-2.028,1.819-2.869,1.778-4.465,1.573c-1.593-0.202-2.517-0.96-3.193-2.366
			c-0.679-1.405-0.427-6.489-0.523-7.877c-0.098-1.386-0.767-2.382-1.935-2.976c-1.417-0.723-2.968-0.344-4.302,0.752
			c-1.378,1.132-3.737,4.423-4.742,6.059c-1,1.642-3.084,3.978-3.633,3.957c-0.653-0.021-0.593-1.121-0.368-3.002
			c0.148-1.246,0.29-2.902,0.337-4.357c0.054-1.452-0.728-2.061-2.17-2.402c-1.443-0.342-2.66,0.43-3.551,1.694
			c-1.026,1.456-3.004,3.893-5.058,6.511c-2.059,2.618-5.337,5.71-6.57,5.597c-1.233-0.118-1.782-1.005-2.243-2.478
			c-0.456-1.472,0.251-7.119,0.469-9.222c0.217-2.106,1.631-11.293,2.673-16.133c1.044-4.838,1.432-5.554,2.357-9.086
			c0.922-3.532,1.191-2.925,0.883-4.61c-0.303-1.685-1.176-1.656-2.116-1.907c-0.935-0.251-1.357-0.267-2.243,0.137
			c-0.886,0.408-1.562,0.76-2.152,2.995c-0.585,2.235-1.818,6.072-5.353,13.587c-3.538,7.518-7.616,14.066-11.939,20.738
			c-3.722,5.752-5.578,6.285-6.863,5.998c-1.064-0.241-1.168-1.727-1.194-3.036c-0.029-1.31,0.357-3.167,1.02-5.472
			c0.663-2.304,2.403-6.844,3.991-10.643c1.59-3.8,4.848-10.469,7.497-16.345c2.901-6.432,3.421-9.268,3.711-10.177
			c0.378-1.181-0.78-1.659-1.712-2.055c-0.93-0.398-2.429,0.048-2.429,0.048c-0.994,0.322-1.74,0.554-2.574,1.472
			c-0.831,0.915-3.255,2.583-4.379,2.921c-0.821,0.249-0.873,0.684-0.409,1.479c0,0,0.223,0.892,1.243,0.781
			c1.023-0.111,0.792-0.247,1.89-0.426c1.096-0.181,1.207,1.073,0.479,3.086c-0.725,2.011-3.61,9.194-5.532,14.293
			c-1.924,5.099-6.907,16.72-7.404,22.209c-0.401,4.407-0.741,7.264,1.997,9.697c3.641,3.232,11.607-3.34,14.412-8.753
			c1.86-3.586,8.743-16.518,9.999-19.237c1.261-2.719,3.61-7.659,3.198-6.434c-0.401,1.222-2.696,10.964-3.727,19.659
			c-1.033,8.693,1.963,9.506,4.043,10.454c2.077,0.943,4.781-0.76,6.197-1.804c1.424-1.04,6.692-7.9,7.161-8.83
			c0.469-0.93,1.603-0.927,1.588-0.417c-0.016,0.508,0.003,4.532,0.743,6.304c0.738,1.774,1.432,2.67,3.517,3.472
			c2.08,0.799,3.276-0.561,5.687-3.92c2.484-3.455,3.742-6.684,4.309-7.373c0.785-0.948,0.751,0.523,0.88,1.922
			c0.145,1.546,0.218,4.155,2.104,6.405c1.887,2.248,3.179,3.382,6.976,2.932c3.799-0.451,7.451-5.555,7.451-5.555
			s0.316,3.429,2.781,5.771c2.463,2.342,3.679,2.267,7.405,1.813c3.727-0.447,9.852-8.485,9.852-8.485s2.794,3.723,6.156,5.602
			c4.201,2.348,12.33,3.935,19.309,4.032c6.985,0.099,18.313-1.949,27.242-4.157c7.872-1.95,17.23-2.989,20.721-3.084
			c3.499-0.096,8.08,0.754,8.456,0.405C183.864,49.213,185.247,48.513,184.162,48.328z M108.582,21.284
			c3.553-6.057,6.739-8.974,7.762-8.562c1.02,0.413,1.013,0.693,0.274,2.924c-0.733,2.226-2.232,7.434-6.184,13.027
			c-3.957,5.594-7,9.431-7,9.431S104.043,29.026,108.582,21.284z"/>
	</g>
	<g id="g8" transform="translate(70.1504,18.5039)">
		<path id="path10" fill-rule="evenodd" clip-rule="evenodd" fill="#008AC8" d="M23.908,11.26c0.005-0.087-0.137-0.298,0.29-0.255
			c0.425,0.045,0.803,0.192,0.847,0.207c0.047,0.017,0.311,0.026,0.311,0.026s0.246-1.098,0.352-1.213
			c0.106-0.113,0.329-0.151,0.44-0.368c0.111-0.219,0.298-0.535,0.689-0.701c0.389-0.162,0.376-0.18,0.773-0.163
			c0.396,0.012,0.901-0.013,1.191,0.098c0.293,0.115,0.378,0.148,0.575,0.376c0.202,0.229,0.448,0.369,0.435,0.65
			c-0.008,0.28,0,0.355-0.034,0.575c-0.036,0.219-0.161,0.333-0.034,0.531c0.127,0.194,0.179,0.315,0.145,0.55
			c-0.041,0.234,0.07,0.562-0.155,0.658c-0.228,0.096-0.932,0.483-1.23,0.548c-0.298,0.063-1.327,0.382-1.597,0.387
			c-0.261,0.004-1.119,0.019-1.398-0.005c-0.277-0.025-0.922-0.107-1.033-0.331c-0.114-0.227-0.212-0.318-0.293-0.585
			C24.102,11.978,23.908,11.26,23.908,11.26"/>
	</g>
	<g id="g12" transform="translate(0,51.9717)">
		<path id="path14" fill="#FFFFFF" d="M0.904,19.686h2.359v6.777c0,2.002,0.637,3.311,2.437,3.311c1.802,0,2.44-1.309,2.44-3.311
			v-6.777h2.359v7.499c0,3.148-1.782,4.443-4.799,4.443c-3.012,0-4.796-1.295-4.796-4.443L0.904,19.686"/>
	</g>
	<g id="g16" transform="translate(9.83398,51.9717)">
		<path id="path18" fill="#FFFFFF" d="M4.109,19.686h2.895l4.478,8.779h0.034v-8.779h2.256v11.741H10.89l-4.491-8.783H6.368v8.783
			H4.109V19.686"/>
	</g>
	<g id="g20" transform="translate(19.6309,51.9717)">
		<path id="path22" fill="#FFFFFF" d="M7.303,19.686h2.354v11.741H7.303V19.686"/>
	</g>
	<g id="g24" transform="translate(24.0078,51.9717)">
		<path id="path26" fill="#FFFFFF" d="M8.729,19.686h2.357v9.89h4.561v1.85H8.729V19.686"/>
	</g>
	<g id="g28" transform="translate(35.2227,51.3076)">
		<path id="path30" fill="#FFFFFF" d="M13.551,19.47v16.828h-1.165V19.47H13.551"/>
	</g>
	<g id="g32" transform="translate(43.0176,51.9717)">
		<path id="path34" fill="#FFFFFF" d="M23.436,27.321c0,3.465-2.538,4.307-4.258,4.307c-1.714,0-4.252-0.842-4.252-4.307v-7.635
			h1.158v7.635c0,1.918,1.064,3.298,3.095,3.298c2.038,0,3.097-1.38,3.097-3.298v-7.635h1.16V27.321"/>
	</g>
	<g id="g36" transform="translate(52.0996,54.2021)">
		<path id="path38" fill="#FFFFFF" d="M17.954,22.635c0-0.658,0-1.332-0.067-2.016h1.028v1.525h0.034
			c0.352-0.773,0.997-1.731,2.779-1.731c2.116,0,2.924,1.414,2.924,3.294v5.489H23.59v-5.214c0-1.62-0.567-2.66-2.033-2.66
			c-1.936,0-2.538,1.699-2.538,3.128v4.746h-1.064L17.954,22.635"/>
	</g>
	<g id="g40" transform="translate(59.9043,51.5635)">
		<path id="path42" fill="#FFFFFF" d="M21.492,20.96H20.43v-1.408h1.062V20.96z M20.431,23.258h1.062v8.577h-1.062V23.258"/>
	</g>
	<g id="g44" transform="translate(62.5322,54.3574)">
		<path id="path46" fill="#FFFFFF" d="M25.445,29.041h-1.243l-2.915-8.577h1.16l2.374,7.415h0.031l2.494-7.415h1.106L25.445,29.041"
			/>
	</g>
	<g id="g48" transform="translate(69.2676,54.2021)">
		<path id="path50" fill="#FFFFFF" d="M29.878,28.928c-0.741,0.302-1.7,0.469-2.49,0.469c-2.841,0-3.905-1.916-3.905-4.489
			c0-2.626,1.45-4.495,3.618-4.495c2.423,0,3.415,1.949,3.415,4.255v0.539h-5.872c0,1.817,0.981,3.283,2.831,3.283
			c0.771,0,1.9-0.322,2.405-0.641v1.079H29.878z M29.357,24.302c0-1.501-0.611-2.98-2.187-2.98c-1.567,0-2.528,1.566-2.528,2.98
			H29.357"/>
	</g>
	<g id="g52" transform="translate(76.7412,54.2021)">
		<path id="path54" fill="#FFFFFF" d="M25.986,22.53c0-0.939,0-1.294-0.067-1.911h1.064v1.647h0.029
			c0.389-0.963,1.114-1.853,2.201-1.853c0.256,0,0.557,0.051,0.743,0.1v1.112c-0.217-0.071-0.502-0.104-0.772-0.104
			c-1.683,0-2.139,1.888-2.139,3.433v4.242h-1.059V22.53"/>
	</g>
	<g id="g56" transform="translate(81.1455,54.2021)">
		<path id="path58" fill="#FFFFFF" d="M27.455,27.949c0.634,0.317,1.417,0.54,2.235,0.54c1.007,0,1.904-0.558,1.904-1.531
			c0-2.036-4.123-1.721-4.123-4.207c0-1.698,1.383-2.339,2.792-2.339c0.456,0,1.365,0.1,2.118,0.386l-0.101,0.926
			c-0.549-0.251-1.31-0.403-1.898-0.403c-1.093,0-1.852,0.337-1.852,1.43c0,1.597,4.227,1.395,4.227,4.207
			c0,1.814-1.704,2.438-2.999,2.438c-0.824,0-1.647-0.098-2.403-0.407L27.455,27.949"/>
	</g>
	<g id="g60" transform="translate(87.3506,51.5635)">
		<path id="path62" fill="#FFFFFF" d="M30.439,20.96h-1.062v-1.408h1.062V20.96z M29.377,23.258h1.062v8.577h-1.062V23.258"/>
	</g>
	<g id="g64" transform="translate(90.1162,52.5146)">
		<path id="path66" fill="#FFFFFF" d="M34.974,23.209h-1.953v5.552c0,0.774,0.285,1.415,1.145,1.415
			c0.404,0,0.671-0.087,0.976-0.203l0.067,0.874c-0.254,0.105-0.777,0.237-1.298,0.237c-1.885,0-1.953-1.295-1.953-2.862v-5.014
			h-1.681v-0.903h1.681v-2.073l1.062-0.37v2.443h1.953L34.974,23.209"/>
	</g>
	<g id="g68" transform="translate(95.3037,51.8545)">
		<path id="path70" fill="#FFFFFF" d="M38.365,31.276c-0.739,0.302-1.703,0.469-2.49,0.469c-2.844,0-3.905-1.916-3.905-4.489
			c0-2.626,1.448-4.495,3.621-4.495c2.421,0,3.41,1.949,3.41,4.255v0.539h-5.868c0,1.817,0.979,3.283,2.828,3.283
			c0.772,0,1.896-0.322,2.405-0.641L38.365,31.276L38.365,31.276z M37.843,26.649c0-1.501-0.609-2.98-2.191-2.98
			c-1.562,0-2.52,1.566-2.52,2.98H37.843z M36.077,19.648h1.328l-2.118,2.424H34.51L36.077,19.648"/>
	</g>
	<g id="g72" transform="translate(106.676,51.3076)">
		<path id="path74" fill="#FFFFFF" d="M42.977,32.091h-1.062v-1.366h-0.033c-0.57,1.098-1.445,1.567-2.676,1.567
			c-2.354,0-3.53-1.95-3.53-4.489c0-2.609,1.01-4.495,3.53-4.495c1.684,0,2.526,1.226,2.676,1.651h0.033V19.47h1.062V32.091z
			 M39.377,31.384c1.886,0,2.538-2.019,2.538-3.582c0-1.567-0.652-3.586-2.538-3.586c-2.025,0-2.541,1.919-2.541,3.586
			C36.837,29.465,37.353,31.384,39.377,31.384"/>
	</g>
	<g id="g76" transform="translate(114.325,54.2021)">
		<path id="path78" fill="#FFFFFF" d="M44.566,28.928c-0.739,0.302-1.701,0.469-2.491,0.469c-2.842,0-3.905-1.916-3.905-4.489
			c0-2.626,1.452-4.495,3.62-4.495c2.421,0,3.413,1.949,3.413,4.255v0.539H39.33c0,1.817,0.979,3.283,2.832,3.283
			c0.768,0,1.901-0.322,2.404-0.641V28.928z M44.043,24.302c0-1.501-0.601-2.98-2.185-2.98c-1.565,0-2.527,1.566-2.527,2.98H44.043"
			/>
	</g>
	<g id="g80" transform="translate(126.088,51.9717)">
		<path id="path82" fill="#FFFFFF" d="M42.004,19.686h1.166v10.731h4.711v1.01h-5.877V19.686"/>
	</g>
	<g id="g84" transform="translate(131.913,54.2021)">
		<path id="path86" fill="#FFFFFF" d="M49.491,27.816h-0.038c-0.471,1.026-1.663,1.581-2.722,1.581c-2.441,0-2.827-1.65-2.827-2.423
			c0-2.879,3.063-3.012,5.281-3.012h0.203v-0.438c0-1.461-0.525-2.203-1.947-2.203c-0.896,0-1.736,0.199-2.529,0.704v-1.023
			c0.651-0.322,1.766-0.591,2.529-0.591c2.115,0,3.006,0.958,3.006,3.196v3.786c0,0.689,0,1.211,0.081,1.801h-1.037
			C49.491,29.194,49.491,27.816,49.491,27.816z M49.387,24.872h-0.302c-1.834,0-4.024,0.185-4.024,2.068
			c0,1.132,0.81,1.55,1.789,1.55c2.486,0,2.538-2.172,2.538-3.096v-0.522"/>
	</g>
	<g id="g88" transform="translate(139.448,54.3574)">
		<path id="path90" fill="#FFFFFF" d="M53.058,27.021c0,0.654,0,1.332,0.07,2.02h-1.033v-1.532h-0.027
			c-0.362,0.774-0.994,1.733-2.775,1.733c-2.122,0-2.934-1.413-2.934-3.294v-5.484h1.063v5.209c0,1.619,0.575,2.661,2.037,2.661
			c1.929,0,2.538-1.701,2.538-3.131v-4.739h1.061L53.058,27.021"/>
	</g>
	<g id="g92" transform="translate(146.633,54.2021)">
		<path id="path94" fill="#FFFFFF" d="M48.798,27.949c0.639,0.317,1.413,0.54,2.24,0.54c1.01,0,1.901-0.558,1.901-1.531
			c0-2.036-4.121-1.721-4.121-4.207c0-1.698,1.38-2.339,2.79-2.339c0.455,0,1.364,0.1,2.123,0.386l-0.103,0.926
			c-0.552-0.251-1.313-0.403-1.9-0.403c-1.089,0-1.848,0.337-1.848,1.43c0,1.597,4.223,1.395,4.223,4.207
			c0,1.814-1.697,2.438-2.997,2.438c-0.823,0-1.647-0.098-2.404-0.407L48.798,27.949"/>
	</g>
	<g id="g96" transform="translate(152.344,54.2021)">
		<path id="path98" fill="#FFFFFF" d="M56.146,27.816H56.11c-0.467,1.026-1.663,1.581-2.72,1.581c-2.445,0-2.828-1.65-2.828-2.423
			c0-2.879,3.059-3.012,5.279-3.012h0.204v-0.438c0-1.461-0.524-2.203-1.956-2.203c-0.886,0-1.734,0.199-2.519,0.704v-1.023
			c0.655-0.322,1.766-0.591,2.519-0.591c2.122,0,3.013,0.958,3.013,3.196v3.786c0,0.689,0,1.211,0.088,1.801h-1.044V27.816z
			 M56.046,24.872h-0.304c-1.835,0-4.027,0.185-4.027,2.068c0,1.132,0.811,1.55,1.79,1.55c2.486,0,2.541-2.172,2.541-3.096V24.872"
			/>
	</g>
	<g id="g100" transform="translate(159.827,54.2021)">
		<path id="path102" fill="#FFFFFF" d="M53.071,22.635c0-0.658,0-1.332-0.069-2.016h1.03v1.525h0.033
			c0.353-0.773,0.994-1.731,2.774-1.731c2.122,0,2.929,1.414,2.929,3.294v5.489h-1.057v-5.214c0-1.62-0.577-2.66-2.041-2.66
			c-1.929,0-2.543,1.699-2.543,3.128v4.746H53.07L53.071,22.635"/>
	</g>
	<g id="g104" transform="translate(167.579,54.2021)">
		<path id="path106" fill="#FFFFFF" d="M55.598,22.635c0-0.658,0-1.332-0.069-2.016h1.03v1.525h0.033
			c0.351-0.773,0.992-1.731,2.777-1.731c2.119,0,2.926,1.414,2.926,3.294v5.489h-1.062v-5.214c0-1.62-0.571-2.66-2.03-2.66
			c-1.94,0-2.543,1.699-2.543,3.128v4.746h-1.062V22.635"/>
	</g>
	<g id="g108" transform="translate(174.905,54.2021)">
		<path id="path110" fill="#FFFFFF" d="M64.308,28.928c-0.739,0.302-1.704,0.469-2.486,0.469c-2.851,0-3.905-1.916-3.905-4.489
			c0-2.626,1.443-4.495,3.612-4.495c2.423,0,3.417,1.949,3.417,4.255v0.539h-5.874c0,1.817,0.981,3.283,2.828,3.283
			c0.774,0,1.905-0.322,2.408-0.641V28.928z M63.79,24.302c0-1.501-0.609-2.98-2.19-2.98c-1.565,0-2.527,1.566-2.527,2.98H63.79"/>
	</g>
</g>
</svg>
